<?xml version="1.0" standalone="no"?>
<!DOCTYPE svg PUBLIC "-//W3C//DTD SVG 20010904//EN"
 "http://www.w3.org/TR/2001/REC-SVG-20010904/DTD/svg10.dtd">
<svg version="1.0" xmlns="http://www.w3.org/2000/svg"
 width="70.000000pt" height="70.000000pt" viewBox="0 0 70.000000 70.000000"
 preserveAspectRatio="xMidYMid meet">
<metadata>
Created by potrace 1.14, written by Peter Selinger 2001-2017
</metadata>
<g transform="translate(0.000000,70.000000) scale(0.100000,-0.100000)"
fill="#000000" stroke="none">
<path d="M472 493 c-40 -115 -70 -217 -68 -228 3 -11 14 -45 26 -75 12 -30 28
-75 37 -100 8 -25 25 -56 37 -68 18 -20 28 -23 66 -19 56 6 92 44 114 118 29
98 14 207 -59 419 -52 150 -56 160 -69 160 -6 0 -44 -93 -84 -207z"/>
<path d="M108 262 c-60 -1 -108 -7 -108 -12 0 -14 29 -102 40 -122 6 -10 10
-24 10 -31 0 -8 15 -31 34 -53 l34 -39 141 -3 c167 -5 161 -12 105 127 -51
128 -71 138 -256 133z"/>
</g>
</svg>
